<svg width="44" height="44" viewBox="0 0 44 44" fill="none" xmlns="http://www.w3.org/2000/svg">
<rect width="44" height="44" rx="22" fill="#4669FA"/>
<path fill-rule="evenodd" clip-rule="evenodd" d="M21.9993 9.16602C14.913 9.16602 9.16602 14.7893 9.16602 21.7275C9.16602 27.275 12.8433 31.9837 17.9428 33.6438C18.5857 33.7593 18.819 33.372 18.819 33.0383C18.819 32.7408 18.8085 31.9498 18.8027 30.9033C15.2327 31.6617 14.4802 29.2187 14.4802 29.2187C13.8957 27.7673 13.0545 27.3812 13.0545 27.3812C11.889 26.6018 13.1432 26.6182 13.1432 26.6182C14.4312 26.7068 15.1078 27.912 15.1078 27.912C16.2523 29.8323 18.1108 29.277 18.8435 28.9562C18.9602 28.1453 19.2903 27.5912 19.6578 27.2762C16.8077 26.96 13.8117 25.882 13.8117 21.0695C13.8117 19.6987 14.3122 18.5775 15.1335 17.699C15.0005 17.3817 14.5607 16.1042 15.2583 14.3752C15.2583 14.3752 16.3363 14.038 18.7887 15.662C19.8118 15.3832 20.9097 15.2455 22.0005 15.2397C23.0902 15.2455 24.188 15.3832 25.2135 15.662C27.6635 14.038 28.7392 14.3752 28.7392 14.3752C29.4392 16.1042 28.9993 17.3817 28.8663 17.699C29.6888 18.5775 30.1858 19.6987 30.1858 21.0695C30.1858 25.8948 27.1852 26.9565 24.3268 27.268C24.7877 27.6553 25.1972 28.4219 25.1972 29.5932C25.1972 31.272 25.182 32.6265 25.182 33.0383C25.182 33.3743 25.413 33.7652 26.064 33.6427C31.1588 31.979 34.8327 27.2738 34.8327 21.7275C34.8327 14.7893 29.0868 9.16602 21.9993 9.16602Z" fill="white"/>
</svg>
